<svg xmlns="http://www.w3.org/2000/svg" viewBox="0 0 135 32"><path d="M134.345 6.495c-.182-.451-.43-.82-.744-1.099a2.581 2.581 0 0 0-1.072-.575 4.843 4.843 0 0 0-1.255-.158c-.7 0-1.358.132-1.966.394-.573.248-1.161.63-1.764 1.14-.277-.533-.663-.924-1.16-1.16a4.027 4.027 0 0 0-1.733-.374c-.637 0-1.21.102-1.707.306-.461.189-.929.493-1.413.908V4.84h-.114a7.28 7.28 0 0 0-.626.034 4.652 4.652 0 0 0-.584.08l-.09.02v11.626h1.414V7.123c.484-.36.953-.631 1.413-.82a4.03 4.03 0 0 1 1.527-.288c.77.002 1.312.197 1.653.567.348.38.526.877.526 1.517v8.499h1.414V7.164c.237-.187.465-.353.685-.496a3.66 3.66 0 0 1 .703-.363 4.02 4.02 0 0 1 .758-.214c.268-.05.561-.076.882-.076.77.002 1.3.197 1.618.566.327.38.496.88.496 1.519v8.499h1.415v-8.41c0-.67-.09-1.235-.276-1.694Zm-16.59-1.808a6.63 6.63 0 0 0-.487-.024c-.186 0-.383.015-.585.046-.216.032-.449.105-.702.218a4.35 4.35 0 0 0-.812.497 7.483 7.483 0 0 0-.84.763V4.84h-.116c-.169 0-.378.011-.625.034-.247.02-.441.047-.584.08l-.09.02v11.625h1.416V7.615c.298-.345.579-.62.835-.819.27-.21.518-.362.735-.46.223-.097.43-.16.628-.188.2-.028.397-.043.583-.043.377 0 .697.036.95.105l.126.034.02-.126a8.9 8.9 0 0 0 .09-.62c.03-.238.045-.44.045-.608v-.083l-.077-.026a2.073 2.073 0 0 0-.51-.094Zm-8.706 8.4c-.17.619-.403 1.108-.693 1.464-.293.36-.641.606-1.054.744a4.331 4.331 0 0 1-1.41.213c-.523 0-.989-.075-1.397-.223a2.312 2.312 0 0 1-1.031-.755c-.284-.358-.507-.841-.66-1.454-.155-.61-.23-1.39-.23-2.336 0-.992.094-1.795.273-2.41.184-.62.431-1.1.735-1.442a2.44 2.44 0 0 1 1.063-.714 4.25 4.25 0 0 1 1.313-.205c.507.001.966.076 1.374.225.404.147.75.398 1.044.756.289.358.518.844.681 1.465.16.615.241 1.393.241 2.325.003.948-.084 1.73-.25 2.347Zm.39-7.052a3.65 3.65 0 0 0-1.546-1.056 5.73 5.73 0 0 0-1.932-.316 4.91 4.91 0 0 0-1.99.395 4.213 4.213 0 0 0-1.545 1.178c-.437.519-.77 1.157-1.003 1.908-.235.755-.35 1.622-.35 2.598 0 1.078.11 2 .336 2.77.226.767.545 1.398.96 1.89.416.491.92.852 1.522 1.078.592.227 1.255.338 1.98.338.699 0 1.348-.12 1.951-.362a4.152 4.152 0 0 0 1.574-1.108c.444-.499.785-1.131 1.034-1.9.253-.77.376-1.672.376-2.707 0-1.11-.121-2.048-.362-2.819-.242-.765-.58-1.395-1.004-1.887ZM99.05 0c-.387 0-.767.067-1.136.204-.37.137-.707.345-1.008.62-.303.273-.544.619-.73 1.027-.185.413-.279.891-.277 1.431v1.602h-1.471v1.22h1.47v12.05c0 .677-.13 1.149-.361 1.423-.232.274-.603.42-1.149.42-.163 0-.331-.005-.51-.01a2.206 2.206 0 0 1-.422-.053l-.114-.027-.028.11a3.495 3.495 0 0 0-.092.581c-.015.2-.022.39-.022.57v.094l.096.02c.167.03.32.048.462.056.12.006.244.01.364.01h.043a3.174 3.174 0 0 0 2.141-.823 3.1 3.1 0 0 0 .73-1.027c.185-.415.28-.893.28-1.433V6.101l2.517.001.021-.09a4.75 4.75 0 0 0 .116-1.015v-.114h-2.654v-1.69c-.002-.676.13-1.147.363-1.422.23-.274.603-.42 1.147-.42.161 0 .333.003.508.01.172.008.314.025.42.052l.116.028.028-.112c.047-.183.077-.376.093-.58a9 9 0 0 0 .022-.57V.078L99.91.064A6.946 6.946 0 0 0 99.05 0Zm-6.648 4.687a6.535 6.535 0 0 0-.488-.024c-.185 0-.38.015-.586.046a2.811 2.811 0 0 0-.7.218 4.35 4.35 0 0 0-.814.497 7.398 7.398 0 0 0-.839.763V4.84h-.116c-.17 0-.375.011-.623.034-.247.02-.443.047-.583.08l-.092.02v11.625h1.419V7.615a5.82 5.82 0 0 1 .833-.819c.269-.21.513-.362.733-.46.222-.097.431-.16.626-.188.204-.028.399-.043.585-.043.381 0 .697.036.95.105l.126.034.021-.126c.028-.176.06-.382.092-.62.029-.238.041-.44.041-.608v-.083l-.078-.026a2.045 2.045 0 0 0-.507-.094Zm-8.523 8.4c-.165.619-.4 1.108-.69 1.464-.295.36-.642.606-1.05.744a4.354 4.354 0 0 1-1.414.213c-.524 0-.989-.075-1.396-.223a2.312 2.312 0 0 1-1.032-.755c-.285-.358-.505-.841-.658-1.454-.153-.61-.23-1.39-.23-2.336 0-.992.091-1.795.273-2.41.182-.62.43-1.1.733-1.442.308-.344.662-.58 1.065-.714a4.26 4.26 0 0 1 1.313-.205c.51.001.964.076 1.375.225.403.147.75.398 1.042.756.292.358.522.844.68 1.465.16.615.243 1.393.243 2.325 0 .948-.085 1.73-.254 2.347Zm1.396-5.165c-.242-.765-.575-1.395-1.003-1.887a3.645 3.645 0 0 0-1.546-1.056 5.74 5.74 0 0 0-1.933-.316c-.73 0-1.393.133-1.99.395a4.231 4.231 0 0 0-1.547 1.178c-.433.519-.768 1.157-1 1.908-.236.755-.353 1.622-.353 2.598 0 1.078.112 2 .34 2.77.227.767.546 1.398.959 1.89.413.491.922.852 1.521 1.078.594.227 1.256.338 1.98.338.698 0 1.348-.12 1.95-.362.606-.24 1.13-.61 1.572-1.108.445-.499.788-1.131 1.039-1.9.249-.77.372-1.672.375-2.707h-.004c0-1.11-.118-2.048-.36-2.819Zm-10.46 7.267-.044-.116-.115.053a3.273 3.273 0 0 1-.823.253 4.606 4.606 0 0 1-.847.087c-.608 0-.99-.151-1.189-.415-.204-.268-.322-.815-.322-1.626V6.104h2.768l.018-.093c.031-.152.054-.317.07-.497.015-.178.021-.35.021-.514v-.116h-2.877V2.112h-.115c-.162 0-.37.022-.635.067-.265.046-.461.096-.6.164l-.067.032v2.509H68.61v1.22h1.447v7.211c.003 1.157.212 2.031.649 2.619.448.598 1.236.884 2.323.882.319 0 .644-.028.968-.09.331-.06.648-.157.954-.293l.068-.031v-.075a3.547 3.547 0 0 0-.205-1.137Zm-7.545.197a2.74 2.74 0 0 0-.197-.54l-.061-.117-.112.075c-.357.241-.778.415-1.263.523-.49.108-.969.16-1.435.16-.6 0-1.117-.078-1.554-.234a2.389 2.389 0 0 1-1.086-.786c-.29-.372-.516-.878-.669-1.52-.154-.64-.23-1.456-.23-2.448 0-.872.084-1.596.25-2.169.169-.575.397-1.033.682-1.378a2.364 2.364 0 0 1 1.041-.735 4.035 4.035 0 0 1 1.364-.223c.44 0 .88.04 1.33.12.444.079.877.211 1.299.398l.107.047.047-.104a2.3 2.3 0 0 0 .177-.589c.037-.216.063-.405.079-.57l.009-.084-.08-.033a5.01 5.01 0 0 0-.707-.237 7.022 7.022 0 0 0-.794-.157c-.27-.036-.532-.066-.787-.088a8.625 8.625 0 0 0-.7-.033 5.03 5.03 0 0 0-1.884.349 3.932 3.932 0 0 0-1.539 1.11c-.435.506-.778 1.154-1.028 1.944-.248.792-.371 1.747-.371 2.872 0 1.921.408 3.388 1.242 4.386.836.999 2.125 1.492 3.824 1.492.217 0 .453-.014.716-.043.265-.031.538-.071.823-.123a5.4 5.4 0 0 0 .844-.226c.273-.097.52-.213.737-.35l.066-.041-.014-.075a6.361 6.361 0 0 0-.126-.573ZM56.124 9.4c0 .097-.003.183-.01.258h-5.84c.072-1.36.381-2.32.901-2.888.544-.59 1.254-.884 2.167-.884.855 0 1.521.24 2.025.715.494.465.756 1.267.756 2.425V9.4Zm-4.542-4.397a3.697 3.697 0 0 0-1.485 1.1c-.421.506-.747 1.156-.982 1.944-.236.792-.348 1.741-.35 2.849.002 2.01.417 3.504 1.277 4.474.858.97 2.15 1.448 3.834 1.448.604 0 1.211-.07 1.821-.212.613-.14 1.12-.34 1.521-.6l.065-.041-.013-.075a3.106 3.106 0 0 0-.162-.548c-.075-.19-.152-.37-.225-.535l-.057-.12-.114.073c-.312.197-.723.369-1.228.513a5.575 5.575 0 0 1-1.54.214c-.718 0-1.309-.098-1.772-.287a2.566 2.566 0 0 1-1.122-.864c-.287-.387-.493-.871-.617-1.452-.123-.584-.186-1.269-.186-2.056l7.218-.017.008-.107c.014-.266.026-.539.033-.818.008-.28.011-.545.011-.794 0-1.456-.36-2.569-1.104-3.316-.737-.743-1.756-1.113-3.025-1.113a4.818 4.818 0 0 0-1.806.34ZM47.645 1.53a4.843 4.843 0 0 0-.547-.033h-.085l-4.197 12.662a4.932 4.932 0 0 0-.236.857c-.015-.084-.033-.17-.05-.261a6.756 6.756 0 0 0-.16-.594L38.218 1.497h-.085c-.17 0-.37.01-.604.033a3.813 3.813 0 0 0-.61.103l-.114.032.033.112a198.864 198.864 0 0 0 2.398 7.495c.857 2.502 1.73 4.918 2.622 7.251l.03.076h1.364l.028-.075c.922-2.333 1.801-4.748 2.634-7.243a223.715 223.715 0 0 0 2.364-7.505l.034-.113-.115-.031a3.934 3.934 0 0 0-.552-.103ZM20.34 2.62 18.27.577 11.24 7.504a2.572 2.572 0 0 0-.682 1.16 2.606 2.606 0 0 0-.683-1.16L2.849.576.78 2.62a2.616 2.616 0 0 0 0 3.725l5.008 4.935 4.738 4.675.035.036 7.575-7.47-.003-.002 2.208-2.174a2.618 2.618 0 0 0 0-3.725Zm3.366 10.715a2.647 2.647 0 0 0-1.175-.673c.433-.117.839-.34 1.175-.673l3.062-3.027-2.07-2.043a2.706 2.706 0 0 0-3.778 0l-1.079 1.07-4.398 4.34-.339.333.977.963 3.704 3.654 1.777 1.76a2.706 2.706 0 0 0 3.779 0l2.07-2.043-3.705-3.66ZM51.968 29.609v-1.727c-.01-.378-.136-.676-.381-.893-.245-.215-.583-.323-1.016-.323-.272 0-.523.05-.75.152-.227.103-.408.24-.54.415a.883.883 0 0 0-.2.542h.645c0-.163.077-.304.232-.419a.932.932 0 0 1 .575-.174c.261 0 .46.067.593.2.134.133.201.31.201.536v.294h-.624c-.538 0-.956.108-1.252.324-.297.215-.446.519-.446.909 0 .32.119.587.356.796.236.21.54.313.91.313.413 0 .769-.155 1.067-.464.023.189.053.32.09.395v-.001h.672v-.055c-.088-.204-.132-.477-.132-.82Zm-.641-.173a.94.94 0 0 1-.392.405c-.18.103-.37.156-.571.156a.771.771 0 0 1-.517-.17.583.583 0 0 1-.2-.472c0-.46.392-.69 1.178-.69h.502v.77Zm1.646-2.7v3.75h.64v-2.672c.089-.18.212-.326.369-.437a.923.923 0 0 1 .547-.166c.256 0 .445.064.566.194.121.13.184.329.186.599v2.481h.64v-2.478c-.006-.894-.406-1.34-1.198-1.34-.462 0-.837.18-1.123.54l-.02-.472-.607.001Zm9.651-1.296h-.662v3.905l-2.546-3.905h-.67v5.045h.67v-3.888l2.54 3.888h.668V25.44Zm4.668 0H63.39v.544h1.618v4.501h.662v-4.501h1.622v-.544Zm4.29 0H67.68v.544h1.618v4.501h.662v-4.501h1.622v-.544Zm5.737 1.12a1.963 1.963 0 0 0-.781-.829 2.294 2.294 0 0 0-1.165-.291h-1.425v5.045h1.397c.453-.005.85-.102 1.19-.294.341-.192.604-.466.787-.825.184-.359.276-.774.276-1.25v-.323a2.688 2.688 0 0 0-.28-1.234Zm-.38 1.54c0 .59-.142 1.045-.428 1.363-.284.32-.684.478-1.197.478h-.7v-3.957h.776c.495.005.876.166 1.145.484.27.318.404.764.404 1.337v.295Zm3.685-2.66h-.583l-1.926 5.045h.686l.474-1.32h2.114l.483 1.32h.682l-1.93-5.045Zm-1.148 3.18.856-2.359.86 2.36h-1.716Zm6.797-3.18H82.37v.544h1.618v4.501h.662v-4.501h1.622v-.544Zm2.494 0h-.582l-1.927 5.045h.687l.474-1.32h2.114l.482 1.32h.683l-1.93-5.045Zm-1.147 3.18.857-2.359.858 2.36H87.62Zm8.556.265c-.064.416-.195.708-.393.875-.197.167-.48.251-.85.251-.412 0-.731-.161-.96-.485-.229-.323-.344-.76-.344-1.308v-.489c0-.58.121-1.027.362-1.341.241-.315.575-.472 1-.472.347 0 .617.09.809.271.193.181.318.473.376.876h.668c-.052-.529-.24-.943-.564-1.242-.324-.299-.754-.449-1.29-.449-.404 0-.76.096-1.068.286a1.88 1.88 0 0 0-.712.82c-.168.356-.251.768-.251 1.237v.485c0 .716.179 1.289.538 1.715.36.428.838.64 1.433.64.55 0 .99-.144 1.321-.434.332-.29.53-.701.592-1.236h-.667Zm4.248-1.688c-.317-.353-.73-.53-1.24-.53-.33 0-.624.08-.882.24-.256.159-.457.385-.603.678a2.227 2.227 0 0 0-.215.991v.047c0 .582.157 1.05.472 1.403.315.354.728.53 1.236.53.337 0 .636-.081.896-.243.259-.161.46-.388.599-.677.14-.29.21-.618.21-.982v-.046c0-.587-.158-1.057-.473-1.41Zm-.466 2.458a.919.919 0 0 1-.779.376.927.927 0 0 1-.771-.384c-.19-.254-.284-.588-.28-1.004.004-.47.104-.829.3-1.079a.917.917 0 0 1 .769-.37.932.932 0 0 1 .774.388c.193.257.288.592.284 1.004-.003.459-.103.816-.297 1.07Zm1.74-2.919v3.75h.64v-2.738c.155-.358.443-.537.863-.537.533 0 .8.273.8.817v2.457h.645v-2.488a.87.87 0 0 1 .274-.574.853.853 0 0 1 .593-.213c.288 0 .495.066.618.198.121.134.183.335.183.602v2.475h.642v-2.513c-.015-.87-.433-1.306-1.255-1.306-.273 0-.51.056-.708.166-.2.111-.362.256-.487.437-.19-.403-.546-.603-1.07-.603-.468 0-.839.162-1.113.485l-.018-.416-.608.001Zm8.998.44c-.262-.34-.62-.51-1.07-.51-.464 0-.827.162-1.088.485l-.032-.416h-.585v5.191h.64v-1.805c.262.289.62.433 1.075.433.445 0 .8-.174 1.06-.524.261-.348.391-.808.391-1.379h.002v-.059c0-.604-.13-1.076-.393-1.416Zm-.52 2.49a.868.868 0 0 1-.734.366c-.395 0-.689-.17-.88-.513v-1.792c.195-.345.485-.516.874-.516a.87.87 0 0 1 .741.367c.18.245.27.579.27 1.002 0 .48-.09.842-.272 1.087Zm4.582-.057v-1.727c-.01-.378-.137-.676-.382-.893-.244-.215-.583-.323-1.015-.323-.272 0-.523.05-.75.152a1.37 1.37 0 0 0-.54.415.883.883 0 0 0-.2.542h.646c0-.163.076-.303.231-.419a.935.935 0 0 1 .576-.174c.261 0 .458.067.593.2.134.133.2.31.2.536v.294h-.623c-.538 0-.956.108-1.252.324-.297.215-.445.519-.445.909 0 .32.118.587.355.796.237.21.54.313.91.313.413 0 .77-.155 1.067-.464.022.189.053.32.09.395v-.001h.671v-.055c-.088-.204-.132-.477-.132-.82Zm-.64-.173a.945.945 0 0 1-.392.405c-.18.103-.371.156-.572.156a.77.77 0 0 1-.516-.17.582.582 0 0 1-.201-.472c0-.46.393-.69 1.178-.69h.503v.77Zm1.645-2.7v3.75h.642v-2.672c.088-.18.21-.326.366-.437a.925.925 0 0 1 .548-.166c.256 0 .446.064.567.194.121.13.183.329.185.599v2.481h.641v-2.478c-.007-.894-.406-1.34-1.2-1.34-.461 0-.836.18-1.122.54l-.02-.472-.607.001Zm4.207 0h-.7l1.339 3.708-.143.38c-.078.235-.178.395-.3.483-.121.088-.29.132-.507.132l-.173-.015v.52l.239.046.12.01c.509 0 .88-.312 1.113-.936l1.508-4.328h-.687l-.873 2.81-.936-2.81Z"></path></svg>